#!OML:ASF I:\Actors\actors\Patient Classification 2\Patient 1\Session 1\actor1.ASF
:FULLY-SPECIFIED
:DEGREES
275
root -0.144551 17.9997 5.12344 4.53769 -14.0842 8.21594
lowerback 15.691 -6.24811 11.1089
upperback 2.77783 -5.79465 9.45396
thorax -5.86284 -2.96858 5.22776
lowerneck -25.0529 7.75132 9.6323
upperneck 10.19 10.3135 -17.1454
head 8.77806 3.58151 -5.90734
rclavicle -3.18055e-014 8.90555e-014
rhumerus 1.6641 0.218088 -86.4661
rradius 73.6587
rwrist -71.7299
rhand -21.695 -37.8059
rfingers 7.12502
rthumb 4.70331 292.266
lclavicle -3.18055e-014 8.90555e-014
lhumerus 39.6185 -52.5306 66.2622
lradius 57.7988
lwrist 4.2347
lhand -7.804 -10.8853
lfingers 7.12502
lthumb 18.0974 18.2928
rfemur 11.2226 10.1309 1.48318
rtibia -30.515
rfoot 2.91824 -19.4818
rtoes -2.16221
lfemur 9.48689 10.6435 -25.2389
ltibia -15.4221
lfoot -1.33233 12.985
ltoes -13.6992
276
root -0.113506 17.9787 5.15296 4.46502 -14.5702 8.68355
lowerback 15.3677 -6.30792 11.394
upperback 2.65411 -5.86221 9.59371
thorax -5.83407 -3.0075 5.21776
lowerneck -25.1493 7.94811 9.59218
upperneck 10.1757 10.6445 -17.4109
head 8.85788 3.70348 -5.93625
rclavicle 2.22639e-014 -9.54166e-015
rhumerus 1.22575 -1.12685 -86.8347
rradius 74.2532
rwrist -71.5704
rhand -21.8407 -37.216
rfingers 7.12502
rthumb 4.56257 292.853
lclavicle 2.22639e-014 -9.54166e-015
lhumerus 40.7012 -53.2075 65.591
lradius 57.5206
lwrist 3.62385
lhand -5.84023 -12.6483
lfingers 7.12502
lthumb 19.9859 16.3439
rfemur 11.3733 10.1726 0.78748
rtibia -31.192
rfoot 3.54433 -19.4475
rtoes -2.56049
lfemur 9.66683 11.1916 -25.8855
ltibia -15.7343
lfoot -1.28322 12.8675
ltoes -13.66
277
root -0.0801693 17.9552 5.1858 4.35924 -15.1463 9.2474
lowerback 15.0966 -6.35473 11.561
upperback 2.54884 -5.9293 9.69285
thorax -5.80663 -3.04447 5.22997
lowerneck -25.4615 8.13212 9.5894
upperneck 10.1723 10.9483 -17.7665
head 8.98453 3.79261 -6.00735
rclavicle -2.22639e-014 -4.45278e-014
rhumerus 0.624528 -2.31432 -87.1246
rradius 75.312
rwrist -71.3366
rhand -22.042 -36.7872
rfingers 7.12502
rthumb 4.36825 293.278
lclavicle -2.22639e-014 -4.45278e-014
lhumerus 41.7112 -53.4926 65.0501
lradius 57.4312
lwrist 3.11566
lhand -6.4805 -13.6138
lfingers 7.12502
lthumb 19.3704 15.4415
rfemur 11.4925 10.2296 -0.0309762
rtibia -31.8505
rfoot 4.15219 -19.3547
rtoes -2.95503
lfemur 9.8991 11.6585 -26.6673
ltibia -16.1256
lfoot -1.22737 12.9062
ltoes -13.8953
278
root -0.0476892 17.9309 5.2216 4.20695 -15.7191 9.68491
lowerback 14.8667 -6.42931 11.7964
upperback 2.57286 -6.03345 9.80799
thorax -5.66419 -3.09722 5.22394
lowerneck -26.3582 8.36932 9.56924
upperneck 10.3906 11.3098 -18.0464
head 9.28656 3.87426 -6.03835
rclavicle -7.95139e-014 5.40694e-014
rhumerus 0.164476 -3.39592 -87.4169
rradius 76.7071
rwrist -71.3723
rhand -22.3168 -36.1405
rfingers 7.12502
rthumb 4.1029 293.919
lclavicle -7.95139e-014 5.40694e-014
lhumerus 42.861 -53.2524 64.4873
lradius 57.2373
lwrist 0.275829
lhand -3.12259 -16.5118
lfingers 7.12502
lthumb 22.5963 12.1856
rfemur 11.6832 10.4271 -0.698544
rtibia -32.4881
rfoot 4.60859 -19.3005
rtoes -3.22999
lfemur 10.2143 12.1365 -27.2944
ltibia -16.5103
lfoot -1.16867 12.9381
ltoes -13.9176
279
root -0.020068 17.9088 5.25665 3.98383 -16.2283 9.93789
lowerback 14.6993 -6.55749 12.1151
upperback 2.5568 -6.17631 9.94435
thorax -5.60614 -3.17128 5.21859
lowerneck -26.9105 8.58098 9.50972
upperneck 10.5825 11.6495 -18.2031
head 9.5072 3.97433 -6.02231
rclavicle 1.59028e-015 -8.26944e-014
rhumerus -0.478497 -4.38013 -87.7298
rradius 78.3274
rwrist -71.5091
rhand -22.8545 -35.2101
rfingers 7.12502
rthumb 3.58357 294.84
lclavicle 1.59028e-015 -8.26944e-014
lhumerus 44.2825 -53.4331 63.411
lradius 57.136
lwrist -1.03635
lhand -5.05361 -17.6464
lfingers 7.12502
lthumb 20.7419 11.2651
rfemur 11.9958 10.6667 -1.09438
rtibia -33.0815
rfoot 5.16943 -19.2017
rtoes -4.28234
lfemur 10.6004 12.6932 -27.6526
ltibia -16.7919
lfoot -1.13603 12.8507
ltoes -13.7776
280
root 0.00305603 17.8876 5.29402 3.55361 -16.7341 10.2456
lowerback 14.6301 -6.71467 12.3473
upperback 2.49756 -6.3493 9.99376
thorax -5.65168 -3.26052 5.18725
lowerneck -26.8627 8.73629 9.54483
upperneck 10.5199 11.8961 -18.4353
head 9.53969 4.06989 -6.06454
rclavicle 7.95139e-015 -1.145e-013
rhumerus -1.35477 -5.35717 -88.071
rradius 80.0889
rwrist -71.1552
rhand -23.2239 -34.5456
rfingers 7.12502
rthumb 3.22684 295.499
lclavicle 7.95139e-015 -1.145e-013
lhumerus 45.6193 -53.8607 62.2928
lradius 57.1822
lwrist -1.5039
lhand -5.85668 -18.5861
lfingers 7.12502
lthumb 19.9701 10.4078
rfemur 12.5104 10.9795 -1.48407
rtibia -33.6239
rfoot 5.70276 -19.0837
rtoes -5.42026
lfemur 11.2125 13.3192 -27.9828
ltibia -17.0537
lfoot -1.15414 12.7161
ltoes -13.7569
281
root 0.0128212 17.8681 5.34032 2.89416 -16.9245 10.6202
lowerback 14.6216 -6.94258 12.2585
upperback 2.3996 -6.64228 10.1544
thorax -5.72643 -3.404 5.48659
lowerneck -26.6869 8.84335 9.47869
upperneck 10.4408 12.1301 -18.7218
head 9.5439 4.15699 -6.11236
rclavicle -2.70347e-014 7.31528e-014
rhumerus -2.37229 -6.24304 -88.1354
rradius 82.0579
rwrist -70.3897
rhand -23.7859 -33.6301
rfingers 7.12502
rthumb 2.68416 296.407
lclavicle -2.70347e-014 7.31528e-014
lhumerus 46.7544 -54.2864 61.4953
lradius 57.4207
lwrist -2.16916
lhand -5.86874 -19.5459
lfingers 7.12502
lthumb 19.9585 9.44918
rfemur 13.4611 11.3273 -1.81476
rtibia -34.1353
rfoot 5.81239 -19.1505
rtoes -5.62524
lfemur 12.1367 13.9028 -28.2213
ltibia -17.3129
lfoot -1.19952 12.3659
ltoes -13.6947
282
root 0.029514 17.8441 5.38447 2.35265 -17.4396 10.9352
lowerback 14.5508 -7.06459 12.2433
upperback 2.31009 -6.80452 10.2525
thorax -5.77164 -3.48564 5.6395
lowerneck -26.5318 8.94421 9.42306
upperneck 10.409 12.3493 -18.9678
head 9.56277 4.23908 -6.15082
rclavicle -3.81667e-014 -4.77083e-014
rhumerus -3.45616 -7.05262 -88.1933
rradius 84.3221
rwrist -69.6602
rhand -24.3262 -33.0642
rfingers 7.12502
rthumb 2.16234 296.967
lclavicle -3.81667e-014 -4.77083e-014
lhumerus 48.0577 -54.7715 60.381
lradius 57.8763
lwrist -2.97699
lhand -5.97242 -20.3876
lfingers 7.12502
lthumb 19.8589 8.61784
rfemur 14.0819 11.6004 -2.16891
rtibia -34.6378
rfoot 6.0709 -19.0248
rtoes -5.54702
lfemur 12.9276 14.6047 -28.4849
ltibia -17.6081
lfoot -1.30768 12.2386
ltoes -13.7393
283
root 0.0516162 17.8186 5.42832 1.90868 -18.1399 11.2286
lowerback 14.3903 -7.12039 12.3084
upperback 2.22133 -6.89023 10.2783
thorax -5.78494 -3.53161 5.64001
lowerneck -26.4346 9.02682 9.40824
upperneck 10.4545 12.537 -19.2112
head 9.61605 4.30212 -6.20285
rclavicle -9.54166e-015 1.27222e-014
rhumerus -4.4805 -7.88266 -88.3322
rradius 86.7978
rwrist -68.9836
rhand -23.9192 -33.5198
rfingers 7.12502
rthumb 2.55543 296.516
lclavicle -9.54166e-015 1.27222e-014
lhumerus 49.6819 -55.2708 58.7869
lradius 58.5546
lwrist -3.59607
lhand -6.10794 -21.3187
lfingers 7.12502
lthumb 19.7286 7.7001
rfemur 14.4807 11.842 -2.56155
rtibia -35.1253
rfoot 6.49561 -18.7613
rtoes -5.95067
lfemur 13.5925 15.2885 -28.7944
ltibia -17.9209
lfoot -1.40018 12.2929
ltoes -13.9513
284
root 0.0760259 17.7928 5.47155 1.60691 -18.8407 11.4457
lowerback 14.3204 -7.09395 12.1848
upperback 1.97548 -6.84746 10.5197
thorax -5.97229 -3.51701 5.98167
lowerneck -26.2271 9.05159 9.19096
upperneck 10.5524 12.7508 -19.5346
head 9.67 4.36316 -6.24733
rclavicle -6.52014e-014 -5.725e-014
rhumerus -5.50317 -8.67158 -88.1017
rradius 89.4116
rwrist -68.1978
rhand -23.3692 -33.0357
rfingers 7.12502
rthumb 3.08657 297.007
lclavicle -6.52014e-014 -5.725e-014
lhumerus 51.0566 -55.6709 57.7179
lradius 59.2586
lwrist -4.06424
lhand -6.21746 -22.6641
lfingers 7.12502
lthumb 19.6233 6.36555
rfemur 14.7269 11.9975 -2.89649
rtibia -35.5886
rfoot 7.0527 -18.426
rtoes -6.74938
lfemur 14.1512 15.9002 -29.065
ltibia -18.3131
lfoot -1.42827 12.4079
ltoes -13.7904
285
root 0.0955649 17.7677 5.51888 1.12333 -19.2238 11.5898
lowerback 14.239 -7.19905 12.1877
upperback 1.79251 -6.96737 10.7303
thorax -6.10085 -3.58006 6.25168
lowerneck -25.9955 9.09645 8.94803
upperneck 10.5918 12.986 -19.8302
head 9.69849 4.4398 -6.27175
rclavicle 3.18055e-014 4.77083e-014
rhumerus -6.34304 -9.47446 -87.8788
rradius 92.0545
rwrist -66.936
rhand -23.0061 -31.8374
rfingers 7.12502
rthumb 3.43717 298.211
lclavicle 3.18055e-014 4.77083e-014
lhumerus 52.4642 -55.9774 56.6585
lradius 59.9255
lwrist -4.53543
lhand -6.32553 -24.0549
lfingers 7.12502
lthumb 19.5194 4.98531
rfemur 15.3719 12.0612 -3.03634
rtibia -36.0307
rfoot 7.47963 -18.1066
rtoes -7.4716
lfemur 15.0132 16.343 -29.1449
ltibia -18.7437
lfoot -1.43397 12.4244
ltoes -13.6549
286
root 0.111406 17.7444 5.56934 0.469956 -19.3584 11.6241
lowerback 14.1977 -7.40243 12.2343
upperback 1.65709 -7.20538 10.9768
thorax -6.19647 -3.69911 6.56684
lowerneck -25.8703 9.17748 8.69019
upperneck 10.7334 13.2881 -20.1157
head 9.78938 4.53607 -6.27844
rclavicle -6.67916e-014 8.5875e-014
rhumerus -7.04387 -10.1535 -87.5653
rradius 94.7443
rwrist -65.1633
rhand -22.9788 -31.069
rfingers 7.12502
rthumb 3.46361 298.979
lclavicle -6.67916e-014 8.5875e-014
lhumerus 53.9441 -56.1732 55.5684
lradius 60.7358
lwrist -5.19474
lhand -6.5036 -25.2333
lfingers 7.12502
lthumb 19.3482 3.82413
rfemur 16.3869 12.1765 -2.96756
rtibia -36.473
rfoot 7.69588 -17.9062
rtoes -8.0387
lfemur 16.1711 16.6906 -29.0022
ltibia -19.2354
lfoot -1.37932 12.3535
ltoes -14.1379
287
root 0.125983 17.7191 5.61707 -0.184333 -19.4293 11.6466
lowerback 14.0745 -7.61352 12.2919
upperback 1.53599 -7.47441 11.1418
thorax -6.2414 -3.83279 6.77801
lowerneck -25.7799 9.30402 8.58087
upperneck 10.9224 13.6046 -20.3709
head 9.91183 4.64446 -6.29682
rclavicle -4.6118e-014 3.49861e-014
rhumerus -7.64004 -10.7679 -87.3483
rradius 97.6261
rwrist -63.2712
rhand -23.5112 -30.223
rfingers 7.12502
rthumb 2.94944 299.818
lclavicle -4.6118e-014 3.49861e-014
lhumerus 55.5601 -56.279 54.12
lradius 61.8413
lwrist -6.01556
lhand -6.83372 -26.5228
lfingers 7.12502
lthumb 19.0307 2.56621
rfemur 17.4453 12.3153 -2.88329
rtibia -36.9323
rfoot 7.85387 -17.7557
rtoes -8.60215
lfemur 17.3859 17.0357 -28.8191
ltibia -19.8364
lfoot -1.2529 12.2407
ltoes -14.4224
288
root 0.141825 17.688 5.66017 -0.689458 -19.6655 11.7181
lowerback 13.7419 -7.70953 12.3372
upperback 1.43837 -7.64895 11.1963
thorax -6.16014 -3.92077 6.81216
lowerneck -25.6215 9.41581 8.54725
upperneck 10.9581 13.8388 -20.5858
head 9.95696 4.73489 -6.32593
rclavicle 2.06736e-014 1.08139e-013
rhumerus -7.99207 -11.4311 -87.274
rradius 100.585
rwrist -61.4116
rhand -23.6136 -29.1446
rfingers 7.12502
rthumb 2.85057 300.895
lclavicle 2.06736e-014 1.08139e-013
lhumerus 57.4193 -56.3237 52.2555
lradius 63.2008
lwrist -6.71627
lhand -7.29562 -28.0618
lfingers 7.12502
lthumb 18.5865 1.07026
rfemur 18.2254 12.3705 -2.92351
rtibia -37.4195
rfoot 8.14576 -17.5069
rtoes -9.10742
lfemur 18.467 17.4762 -28.7535
ltibia -20.5931
lfoot -1.02682 12.1553
ltoes -14.2147
